<svg xmlns="http://www.w3.org/2000/svg" viewBox="0 0 1200 900" role="img" aria-labelledby="t d"><title id="t">Layered garden in cool daylight</title><desc id="d">A stylized daylight garden with layered planting, gravel walk and mature canopy.</desc><defs><linearGradient id="sky" x2="0" y2="1"><stop stop-color="#dfe4dc"/><stop offset="1" stop-color="#b9c4b7"/></linearGradient><linearGradient id="leaf" x2="1" y2="1"><stop stop-color="#66765e"/><stop offset="1" stop-color="#334236"/></linearGradient></defs><rect width="1200" height="900" fill="url(#sky)"/><path d="M0 490 C180 420 280 450 430 410 C620 360 730 430 900 380 C1010 350 1110 350 1200 300V900H0Z" fill="#4d5e49"/><path d="M0 610 C160 570 280 620 430 560 C620 485 780 570 920 520 C1050 475 1120 520 1200 500V900H0Z" fill="url(#leaf)"/><path d="M515 900 C530 770 610 690 760 630 C850 594 910 550 980 470" fill="none" stroke="#cfc7b7" stroke-width="95"/><path d="M515 900 C530 770 610 690 760 630 C850 594 910 550 980 470" fill="none" stroke="#a69d8f" stroke-width="4"/><g fill="#82907a"><circle cx="150" cy="540" r="120"/><circle cx="290" cy="510" r="98"/><circle cx="1090" cy="450" r="130"/></g><g stroke="#dad6ca" stroke-width="5" opacity=".65"><path d="M40 750l230-70"/><path d="M65 785l250-77"/><path d="M890 740l250-90"/><path d="M900 775l255-90"/></g></svg>