<svg xmlns="http://www.w3.org/2000/svg" viewBox="0 0 1600 1200" role="img" aria-labelledby="t d"><title id="t">Sprint / speed mechanics image</title><desc id="d">Sprint / speed mechanics image</desc><defs><linearGradient id="a" x2="1" y2="1"><stop stop-color="#d9ff43"/><stop offset="1" stop-color="#8cff3d"/></linearGradient></defs><rect width="1600" height="1200" fill="#0a0b0b"/><path d="M-20 1080 L740 0 H1160 L420 1200Z" fill="url(#a)"/><g transform="translate(870 555) rotate(8)" fill="#0a0b0b"><circle cy="-250" r="82"/><path d="M-75-160 L95-160 L155 120 L40 320 L-130 260 L-190 40Z"/><path d="M-110 240 L-250 530 L-120 590 L40 300Z"/><path d="M55 290 L240 510 L350 430 L140 170Z"/><path d="M-130 -80 L-360 120 L-290 200 L-55 20Z"/><path d="M80 -80 L350 20 L390 -80 L110 -190Z"/></g><g fill="#fff" opacity=".15"><rect x="80" y="90" width="470" height="12"/><rect x="80" y="125" width="300" height="12"/><rect x="1170" y="1030" width="330" height="12"/></g></svg>