<svg xmlns="http://www.w3.org/2000/svg" viewBox="0 0 900 1200" role="img" aria-labelledby="t d"><title id="t">Planting texture</title><desc id="d">A cool daylight planting study of grasses and broadleaf perennials.</desc><rect width="900" height="1200" fill="#b9c2b1"/><g stroke="#465542" stroke-linecap="round" fill="none"><path d="M110 1180Q170 690 220 290M220 1180Q280 690 380 140M400 1180Q410 760 510 260M560 1180Q520 690 690 110M720 1180Q700 650 840 310" stroke-width="15"/><g stroke-width="8"><path d="M170 620l-110-90M190 520l115-110M330 650l-150-80M370 520l150-100M500 740l-150-120M565 580l130-135M680 680l-120-90M750 540l110-100"/></g></g><g fill="#d9d5c6"><ellipse cx="100" cy="520" rx="90" ry="30" transform="rotate(28 100 520)"/><ellipse cx="305" cy="405" rx="105" ry="32" transform="rotate(-35 305 405)"/><ellipse cx="690" cy="445" rx="120" ry="36" transform="rotate(-30 690 445)"/></g><g fill="#7a866f"><circle cx="135" cy="830" r="85"/><circle cx="355" cy="920" r="110"/><circle cx="670" cy="860" r="125"/></g></svg>