<svg xmlns="http://www.w3.org/2000/svg" viewBox="0 0 1200 800"><rect width="1200" height="800" fill="#b9c8b2"/><rect y="500" width="1200" height="300" fill="#725f47"/><path d="M0 520 C220 430 390 470 570 420 C760 370 910 430 1200 310 L1200 800 L0 800Z" fill="#274d37"/><path d="M0 650 C250 560 420 600 610 540 C840 470 1030 520 1200 460 L1200 800 L0 800Z" fill="#173629"/><path d="M610 800 L845 800 L790 505 L670 505Z" fill="#d8c7aa"/><path d="M645 735h164M655 675h141M664 620h122M675 566h100" stroke="#8d806b" stroke-width="7"/><circle cx="210" cy="440" r="90" fill="#8f9f70"/><circle cx="330" cy="410" r="75" fill="#6f895e"/><circle cx="1010" cy="330" r="110" fill="#718a62"/><circle cx="1080" cy="430" r="85" fill="#a3a477"/><g fill="#d5ba7c"><circle cx="150" cy="570" r="14"/><circle cx="190" cy="600" r="12"/><circle cx="1080" cy="560" r="13"/><circle cx="1030" cy="600" r="12"/></g><rect x="755" y="360" width="260" height="135" fill="#d9cfb8"/><rect x="790" y="395" width="70" height="100" fill="#5a3d2a"/><rect x="885" y="395" width="85" height="58" fill="#8fa3a6"/><text x="55" y="90" font-family="Arial" font-size="22" letter-spacing="6" fill="#173629">FIELDSTONE / TERRACE STUDY</text></svg>