<svg xmlns="http://www.w3.org/2000/svg" viewBox="0 0 1600 1200" role="img" aria-labelledby="t d"><title id="t">Canoe expedition image</title><desc id="d">Canoe expedition image</desc><defs><linearGradient id="w" x2="0" y2="1"><stop stop-color="#cad6cd"/><stop offset=".65" stop-color="#e6e2cc"/></linearGradient></defs><rect width="1600" height="1200" fill="url(#w)"/><circle cx="1150" cy="220" r="100" fill="#f3e5af"/><path d="M0 760 L330 380 L610 720 L880 250 L1260 730 L1600 430 V1200 H0Z" fill="#385143"/><path d="M0 850 L380 580 L650 850 L960 500 L1260 820 L1600 620 V1200 H0Z" fill="#5f7464"/><path d="M0 930 C380 760 520 1040 820 890 S1280 760 1600 960 V1200 H0Z" fill="#d9dccf"/><path d="M0 960 C420 870 510 1110 920 950 S1350 870 1600 1010" fill="none" stroke="#6f958e" stroke-width="85" opacity=".9"/><path d="M710 900 L890 900 L1020 955 L590 955Z" fill="#7a321f"/><path d="M790 900 L820 780 L850 900" stroke="#44362d" stroke-width="12" fill="none"/></svg>