<svg xmlns="http://www.w3.org/2000/svg" viewBox="0 0 1600 1000" role="img" aria-label="Topographic contours of a northern mountain and river route">
<rect width="1600" height="1000" fill="#E5DDCB"/>
<g fill="none" stroke="#173B31" stroke-opacity=".16" stroke-width="2">
<path d="M-80 175 C140 45 290 295 510 160 S850 30 1040 205 1410 315 1680 130"/>
<path d="M-100 210 C110 95 315 330 530 192 S860 82 1054 240 1425 340 1690 170"/>
<path d="M-130 246 C95 145 330 365 560 230 S880 120 1070 280 1432 378 1700 210"/>
<path d="M-90 330 C165 220 280 465 525 360 S865 225 1105 390 1445 485 1660 330"/>
<path d="M-120 372 C135 260 315 505 552 395 S890 272 1120 430 1455 525 1690 370"/>
<path d="M-80 455 C140 350 360 590 600 495 S925 355 1150 510 1430 635 1680 472"/>
<path d="M-120 500 C115 385 380 630 625 535 S940 402 1170 552 1450 675 1700 520"/>
<path d="M-65 620 C190 500 355 760 620 665 S945 520 1190 665 1450 790 1660 635"/>
<path d="M-100 665 C165 545 385 795 650 705 S970 565 1210 710 1470 830 1695 680"/>
<path d="M-60 770 C190 660 390 905 690 822 S1040 700 1270 835 1510 930 1680 790"/>
<path d="M-100 818 C155 708 425 948 715 870 S1060 750 1295 882 1530 972 1700 835"/>
</g>
<g fill="none" stroke="#46515A" stroke-opacity=".12" stroke-width="1.3">
<path d="M275 -40 C220 155 390 260 312 430 S170 765 300 1040"/><path d="M342 -45 C300 135 455 250 388 428 S235 760 372 1045"/>
<path d="M760 -30 C660 150 805 290 740 435 S605 790 735 1030"/><path d="M830 -35 C730 150 880 290 815 450 S680 785 820 1035"/>
<path d="M1280 -40 C1160 175 1325 295 1265 470 S1145 770 1260 1035"/><path d="M1350 -35 C1230 175 1395 315 1340 485 S1215 790 1330 1040"/>
</g>
<g fill="#173B31" opacity=".55" font-family="Arial, sans-serif" font-size="20" letter-spacing="2">
<text x="102" y="905">68° 08' N</text><text x="1335" y="115">149° 41' W</text>
</g>
</svg>
